<svg xmlns="http://www.w3.org/2000/svg" width="132.635" height="93.539" viewBox="0 0 132.635 93.539"><g transform="translate(162.635 151.705)"><path d="M0,0,24.851.019,24.9,58.987.045,58.968Z" transform="translate(-162.635 -139.257) rotate(-30)" fill="#fb7820"/><path d="M11.995.009h.861A12.012,12.012,0,0,1,24.86,12v.86A11.967,11.967,0,0,1,12.875,24.838h-.861a12.012,12.012,0,0,1-12-11.993v-.86A11.967,11.967,0,0,1,11.995.009Z" transform="translate(-140.327 -100.955) rotate(-30)" fill="#fb7820"/><g transform="translate(-134 -113.068)"><text transform="translate(22 47.903)" fill="#ec641d" font-size="27" font-family="Montserrat-Bold, Montserrat" font-weight="700" letter-spacing="-0.035em"><tspan x="0" y="0">N</tspan><tspan y="0" font-family="MontserratAlternates-Bold, Montserrat Alternates">epal</tspan></text><text transform="translate(24 25.903)" fill="#162c69" font-size="27" font-family="Montserrat-Bold, Montserrat" font-weight="700" letter-spacing="-0.035em"><tspan x="0" y="0">orona</tspan></text><text transform="translate(0 25.903)" fill="#fff" font-size="27" font-family="MontserratAlternates-Bold, Montserrat Alternates" font-weight="700" letter-spacing="0.15em"><tspan x="0" y="0">C</tspan></text></g></g></svg>